<svg width="128" height="128" viewBox="0 0 128 128" fill="none" xmlns="http://www.w3.org/2000/svg">
<rect x="1" y="1" width="126" height="126" rx="19" fill="#0F1724"/>
<rect x="1" y="1" width="126" height="126" rx="19" stroke="#263752" stroke-width="2"/>
<path d="M62.5682 42.3636V86H52.6818L36.9148 63.0739H36.6591V86H24.8125V42.3636H34.8693L50.3807 65.2045H50.7216V42.3636H62.5682ZM91.6946 56C91.581 54.5795 91.0483 53.4716 90.0966 52.6761C89.1591 51.8807 87.7315 51.483 85.8139 51.483C84.5923 51.483 83.5909 51.6321 82.8097 51.9304C82.0426 52.2145 81.4744 52.6051 81.1051 53.1023C80.7358 53.5994 80.544 54.1676 80.5298 54.8068C80.5014 55.3324 80.5938 55.8082 80.8068 56.2344C81.0341 56.6463 81.3892 57.0227 81.8722 57.3636C82.3551 57.6903 82.973 57.9886 83.7259 58.2585C84.4787 58.5284 85.3736 58.7699 86.4105 58.983L89.9901 59.75C92.4048 60.2614 94.4716 60.9361 96.1903 61.7741C97.9091 62.6122 99.3153 63.5994 100.409 64.7358C101.503 65.858 102.305 67.1222 102.817 68.5284C103.342 69.9347 103.612 71.4687 103.626 73.1307C103.612 76 102.895 78.429 101.474 80.4176C100.054 82.4062 98.0227 83.919 95.3807 84.956C92.7528 85.9929 89.5923 86.5114 85.8991 86.5114C82.1065 86.5114 78.7969 85.9503 75.9702 84.8281C73.1577 83.706 70.9702 81.9801 69.4077 79.6506C67.8594 77.3068 67.0781 74.3097 67.0639 70.6591H78.3139C78.3849 71.9943 78.7188 73.1165 79.3153 74.0256C79.9119 74.9347 80.75 75.6236 81.8295 76.0923C82.9233 76.5611 84.223 76.7955 85.7287 76.7955C86.9929 76.7955 88.0511 76.6392 88.9034 76.3267C89.7557 76.0142 90.402 75.581 90.8423 75.027C91.2827 74.473 91.5099 73.8409 91.5241 73.1307C91.5099 72.4631 91.2898 71.8807 90.8636 71.3835C90.4517 70.8722 89.7699 70.4176 88.8182 70.0199C87.8665 69.608 86.581 69.2244 84.9616 68.8693L80.6151 67.9318C76.7514 67.0937 73.7045 65.6946 71.4744 63.7344C69.2585 61.7599 68.1577 59.0682 68.1719 55.6591C68.1577 52.8892 68.8963 50.4673 70.3878 48.3935C71.8935 46.3054 73.9744 44.679 76.6307 43.5142C79.3011 42.3494 82.3622 41.767 85.8139 41.767C89.3366 41.767 92.3835 42.3565 94.9545 43.5355C97.5256 44.7145 99.5071 46.3764 100.899 48.5213C102.305 50.652 103.016 53.1449 103.03 56H91.6946Z" fill="#9CBCEF"/>
</svg>
